<svg xmlns="http://www.w3.org/2000/svg" viewBox="0 0 120 120"><g transform="translate(40 120)" opacity="0.42"><path d="M0 0 C -2 -40, 1 -64, 0 -80" fill="none" stroke="#A86544" stroke-width="1.2"/><path d="M0 -22.4 Q -4.55 -27.4, -7.58 -34.4" fill="none" stroke="#A86544" stroke-width="0.8" stroke-linecap="round" opacity="0.5"/><path d="M0 -24.64 Q 4.94 -29.64, 8.24 -36.64" fill="none" stroke="#A86544" stroke-width="0.8" stroke-linecap="round" opacity="0.52"/><path d="M0 -26.88 Q -5.34 -31.88, -8.9 -38.88" fill="none" stroke="#A86544" stroke-width="0.8" stroke-linecap="round" opacity="0.53"/><path d="M0 -29.12 Q 5.73 -34.12, 9.56 -41.12" fill="none" stroke="#A86544" stroke-width="0.8" stroke-linecap="round" opacity="0.55"/><path d="M0 -31.36 Q -6.13 -36.36, -10.22 -43.36" fill="none" stroke="#A86544" stroke-width="0.8" stroke-linecap="round" opacity="0.56"/><path d="M0 -33.6 Q 6.53 -38.6, 10.88 -45.6" fill="none" stroke="#A86544" stroke-width="0.8" stroke-linecap="round" opacity="0.58"/><path d="M0 -35.84 Q -6.92 -40.84, -11.54 -47.84" fill="none" stroke="#A86544" stroke-width="0.8" stroke-linecap="round" opacity="0.6"/><path d="M0 -38.08 Q 7.32 -43.08, 12.2 -50.08" fill="none" stroke="#A86544" stroke-width="0.8" stroke-linecap="round" opacity="0.61"/><path d="M0 -40.32 Q -7.71 -45.32, -12.86 -52.32" fill="none" stroke="#A86544" stroke-width="0.8" stroke-linecap="round" opacity="0.63"/><path d="M0 -42.56 Q 8.11 -47.56, 13.52 -54.56" fill="none" stroke="#A86544" stroke-width="0.8" stroke-linecap="round" opacity="0.64"/><path d="M0 -44.8 Q -8.51 -49.8, -14.18 -56.8" fill="none" stroke="#A86544" stroke-width="0.8" stroke-linecap="round" opacity="0.66"/><path d="M0 -47.04 Q 8.9 -52.04, 14.84 -59.04" fill="none" stroke="#A86544" stroke-width="0.8" stroke-linecap="round" opacity="0.68"/><path d="M0 -49.28 Q -8.7 -54.28, -14.51 -61.28" fill="none" stroke="#A86544" stroke-width="0.8" stroke-linecap="round" opacity="0.69"/><path d="M0 -51.52 Q 8.31 -56.52, 13.85 -63.52" fill="none" stroke="#A86544" stroke-width="0.8" stroke-linecap="round" opacity="0.71"/><path d="M0 -53.76 Q -7.91 -58.76, -13.19 -65.76" fill="none" stroke="#A86544" stroke-width="0.8" stroke-linecap="round" opacity="0.72"/><path d="M0 -56 Q 7.52 -61, 12.53 -68" fill="none" stroke="#A86544" stroke-width="0.8" stroke-linecap="round" opacity="0.74"/><path d="M0 -58.24 Q -7.12 -63.24, -11.87 -70.24" fill="none" stroke="#A86544" stroke-width="0.8" stroke-linecap="round" opacity="0.76"/><path d="M0 -60.48 Q 6.72 -65.48, 11.21 -72.48" fill="none" stroke="#A86544" stroke-width="0.8" stroke-linecap="round" opacity="0.77"/><path d="M0 -62.72 Q -6.33 -67.72, -10.55 -74.72" fill="none" stroke="#A86544" stroke-width="0.8" stroke-linecap="round" opacity="0.79"/><path d="M0 -64.96 Q 5.93 -69.96, 9.89 -76.96" fill="none" stroke="#A86544" stroke-width="0.8" stroke-linecap="round" opacity="0.8"/><path d="M0 -67.2 Q -5.54 -72.2, -9.23 -79.2" fill="none" stroke="#A86544" stroke-width="0.8" stroke-linecap="round" opacity="0.82"/><path d="M0 -69.44 Q 5.14 -74.44, 8.57 -81.44" fill="none" stroke="#A86544" stroke-width="0.8" stroke-linecap="round" opacity="0.84"/><path d="M0 -71.68 Q -4.74 -76.68, -7.91 -83.68" fill="none" stroke="#A86544" stroke-width="0.8" stroke-linecap="round" opacity="0.85"/><path d="M0 -73.92 Q 4.35 -78.92, 7.25 -85.92" fill="none" stroke="#A86544" stroke-width="0.8" stroke-linecap="round" opacity="0.87"/><path d="M0 -76.16 Q -3.95 -81.16, -6.59 -88.16" fill="none" stroke="#A86544" stroke-width="0.8" stroke-linecap="round" opacity="0.88"/><path d="M0 -78.4 Q 3.56 -83.4, 5.93 -90.4" fill="none" stroke="#A86544" stroke-width="0.8" stroke-linecap="round" opacity="0.9"/></g><g transform="translate(62 120)" opacity="0.45"><path d="M0 0 C -2 -29, 1 -46.4, 0 -58" fill="none" stroke="#D6A98A" stroke-width="1.2"/><path d="M0 -16.24 Q -4.55 -21.24, -7.58 -28.24" fill="none" stroke="#D6A98A" stroke-width="0.8" stroke-linecap="round" opacity="0.5"/><path d="M0 -17.86 Q 4.94 -22.86, 8.24 -29.86" fill="none" stroke="#D6A98A" stroke-width="0.8" stroke-linecap="round" opacity="0.52"/><path d="M0 -19.49 Q -5.34 -24.49, -8.9 -31.49" fill="none" stroke="#D6A98A" stroke-width="0.8" stroke-linecap="round" opacity="0.53"/><path d="M0 -21.11 Q 5.73 -26.11, 9.56 -33.11" fill="none" stroke="#D6A98A" stroke-width="0.8" stroke-linecap="round" opacity="0.55"/><path d="M0 -22.74 Q -6.13 -27.74, -10.22 -34.74" fill="none" stroke="#D6A98A" stroke-width="0.8" stroke-linecap="round" opacity="0.56"/><path d="M0 -24.36 Q 6.53 -29.36, 10.88 -36.36" fill="none" stroke="#D6A98A" stroke-width="0.8" stroke-linecap="round" opacity="0.58"/><path d="M0 -25.98 Q -6.92 -30.98, -11.54 -37.98" fill="none" stroke="#D6A98A" stroke-width="0.8" stroke-linecap="round" opacity="0.6"/><path d="M0 -27.61 Q 7.32 -32.61, 12.2 -39.61" fill="none" stroke="#D6A98A" stroke-width="0.8" stroke-linecap="round" opacity="0.61"/><path d="M0 -29.23 Q -7.71 -34.23, -12.86 -41.23" fill="none" stroke="#D6A98A" stroke-width="0.8" stroke-linecap="round" opacity="0.63"/><path d="M0 -30.86 Q 8.11 -35.86, 13.52 -42.86" fill="none" stroke="#D6A98A" stroke-width="0.8" stroke-linecap="round" opacity="0.64"/><path d="M0 -32.48 Q -8.51 -37.48, -14.18 -44.48" fill="none" stroke="#D6A98A" stroke-width="0.8" stroke-linecap="round" opacity="0.66"/><path d="M0 -34.1 Q 8.9 -39.1, 14.84 -46.1" fill="none" stroke="#D6A98A" stroke-width="0.8" stroke-linecap="round" opacity="0.68"/><path d="M0 -35.73 Q -8.7 -40.73, -14.51 -47.73" fill="none" stroke="#D6A98A" stroke-width="0.8" stroke-linecap="round" opacity="0.69"/><path d="M0 -37.35 Q 8.31 -42.35, 13.85 -49.35" fill="none" stroke="#D6A98A" stroke-width="0.8" stroke-linecap="round" opacity="0.71"/><path d="M0 -38.98 Q -7.91 -43.98, -13.19 -50.98" fill="none" stroke="#D6A98A" stroke-width="0.8" stroke-linecap="round" opacity="0.72"/><path d="M0 -40.6 Q 7.52 -45.6, 12.53 -52.6" fill="none" stroke="#D6A98A" stroke-width="0.8" stroke-linecap="round" opacity="0.74"/><path d="M0 -42.22 Q -7.12 -47.22, -11.87 -54.22" fill="none" stroke="#D6A98A" stroke-width="0.8" stroke-linecap="round" opacity="0.76"/><path d="M0 -43.85 Q 6.72 -48.85, 11.21 -55.85" fill="none" stroke="#D6A98A" stroke-width="0.8" stroke-linecap="round" opacity="0.77"/><path d="M0 -45.47 Q -6.33 -50.47, -10.55 -57.47" fill="none" stroke="#D6A98A" stroke-width="0.8" stroke-linecap="round" opacity="0.79"/><path d="M0 -47.1 Q 5.93 -52.1, 9.89 -59.1" fill="none" stroke="#D6A98A" stroke-width="0.8" stroke-linecap="round" opacity="0.8"/><path d="M0 -48.72 Q -5.54 -53.72, -9.23 -60.72" fill="none" stroke="#D6A98A" stroke-width="0.8" stroke-linecap="round" opacity="0.82"/><path d="M0 -50.34 Q 5.14 -55.34, 8.57 -62.34" fill="none" stroke="#D6A98A" stroke-width="0.8" stroke-linecap="round" opacity="0.84"/><path d="M0 -51.97 Q -4.74 -56.97, -7.91 -63.97" fill="none" stroke="#D6A98A" stroke-width="0.8" stroke-linecap="round" opacity="0.85"/><path d="M0 -53.59 Q 4.35 -58.59, 7.25 -65.59" fill="none" stroke="#D6A98A" stroke-width="0.8" stroke-linecap="round" opacity="0.87"/><path d="M0 -55.22 Q -3.95 -60.22, -6.59 -67.22" fill="none" stroke="#D6A98A" stroke-width="0.8" stroke-linecap="round" opacity="0.88"/><path d="M0 -56.84 Q 3.56 -61.84, 5.93 -68.84" fill="none" stroke="#D6A98A" stroke-width="0.8" stroke-linecap="round" opacity="0.9"/></g></svg>